<svg width="128" height="128" viewBox="0 0 128 128" fill="none" xmlns="http://www.w3.org/2000/svg" role="img" aria-labelledby="title desc">
  <title id="title">Collabify logo</title>
  <desc id="desc">A rounded gradient collaboration mark with connected creator and business nodes and a sparkle.</desc>
  <rect x="12" y="12" width="104" height="104" rx="30" fill="url(#paint0_linear)"/>
  <g filter="url(#shadow)">
    <circle cx="45" cy="56" r="17" fill="white" fill-opacity="0.96"/>
    <circle cx="83" cy="72" r="17" fill="white" fill-opacity="0.96"/>
    <path d="M59.5 61.8L68.5 65.6" stroke="white" stroke-opacity="0.92" stroke-width="10" stroke-linecap="round"/>
    <path d="M57.5 61L70.5 66.5" stroke="#0E7490" stroke-width="5" stroke-linecap="round"/>
    <path d="M45 50.5C48.6 50.5 51.5 53.4 51.5 57C51.5 60.6 48.6 63.5 45 63.5C41.4 63.5 38.5 60.6 38.5 57C38.5 53.4 41.4 50.5 45 50.5Z" fill="#06B6D4"/>
    <path d="M34.5 70.5C37 65.8 40.8 63.4 45 63.4C49.2 63.4 53 65.8 55.5 70.5" stroke="#06B6D4" stroke-width="5" stroke-linecap="round"/>
    <rect x="74" y="62" width="18" height="18" rx="4" fill="#7C3AED"/>
    <path d="M78 62V58.8C78 57.2 79.2 56 80.8 56H85.2C86.8 56 88 57.2 88 58.8V62" stroke="#7C3AED" stroke-width="4" stroke-linecap="round"/>
  </g>
  <path d="M84 32L87.6 40.4L96 44L87.6 47.6L84 56L80.4 47.6L72 44L80.4 40.4L84 32Z" fill="white"/>
  <path d="M37 87L39 91.7L44 94L39 96.3L37 101L35 96.3L30 94L35 91.7L37 87Z" fill="#CFFAFE"/>
  <defs>
    <filter id="shadow" x="20" y="34" width="88" height="66" filterUnits="userSpaceOnUse" color-interpolation-filters="sRGB">
      <feFlood flood-opacity="0" result="BackgroundImageFix"/>
      <feColorMatrix in="SourceAlpha" type="matrix" values="0 0 0 0 0 0 0 0 0 0 0 0 0 0 0 0 0 0 127 0" result="hardAlpha"/>
      <feOffset dy="6"/>
      <feGaussianBlur stdDeviation="5"/>
      <feColorMatrix type="matrix" values="0 0 0 0 0.0156863 0 0 0 0 0.0901961 0 0 0 0 0.164706 0 0 0 0.18 0"/>
      <feBlend mode="normal" in2="BackgroundImageFix" result="effect1_dropShadow"/>
      <feBlend mode="normal" in="SourceGraphic" in2="effect1_dropShadow" result="shape"/>
    </filter>
    <linearGradient id="paint0_linear" x1="22" y1="24" x2="108" y2="111" gradientUnits="userSpaceOnUse">
      <stop stop-color="#06B6D4"/>
      <stop offset="0.52" stop-color="#2563EB"/>
      <stop offset="1" stop-color="#7C3AED"/>
    </linearGradient>
  </defs>
</svg>
